#!OML:ASF F:\VICON\USERDATA\INSTALL\rory3\rory3.ASF
:FULLY-SPECIFIED
:DEGREES
4407
root -1.75574 15.9282 -3.98068 0.968162 11.1129 -3.21482
lowerback 18.1422 -4.75482 -4.61891
upperback 3.53302 -6.84234 3.74264
thorax -5.26274 -3.28562 8.13007
lowerneck -16.0563 -4.18481 -13.3065
upperneck 20.7503 -5.15148 11.8383
head 9.88954 -2.1653 5.74742
rclavicle -4.95719e-015 6.21202e-015
rhumerus -14.7216 5.72652 -68.6016
rradius 104.242
rwrist -35.8133
rhand -8.34748 21.9599
rfingers 7.12502
rthumb 17.5745 -7.26578
lclavicle -4.95719e-015 6.21202e-015
lhumerus 24.452 -9.27386 74.3736
lradius 106.295
lwrist 17.974
lhand 0.464344 8.59111
lfingers 7.12502
lthumb 26.0351 36.8272
rfemur -51.4044 -5.68635 11.3581
rtibia 65.5505
rfoot 13.9031 6.89788
rtoes 5.86262
lfemur -7.72391 4.42443 1.24472
ltibia 62.6966
lfoot -16.4263 -1.05967
ltoes -38.517
4408
root -1.76794 16.0307 -3.88992 0.823744 10.4268 -3.0759
lowerback 17.5291 -4.82668 -4.6632
upperback 3.54919 -6.94252 3.59716
thorax -4.91598 -3.35513 7.93909
lowerneck -16.6579 -3.98811 -13.2235
upperneck 21.0889 -4.77873 11.5666
head 10.0599 -2.00118 5.69692
rclavicle 1.76049e-014 -3.18055e-015
rhumerus -18.7839 4.82876 -69.6803
rradius 102.81
rwrist -35.9707
rhand -7.37979 22.2084
rfingers 7.12502
rthumb 18.5055 -6.93134
lclavicle 1.76049e-014 -3.18055e-015
lhumerus 21.908 -7.80421 73.9329
lradius 106.495
lwrist 15.7625
lhand 0.568455 8.26339
lfingers 7.12502
lthumb 26.1347 36.4848
rfemur -50.5745 -5.11498 11.1354
rtibia 63.986
rfoot 11.8361 5.48474
rtoes 4.78081
lfemur -6.39036 5.03259 0.767974
ltibia 61.6555
lfoot -15.737 -1.58954
ltoes -37.8435
4409
root -1.78061 16.1313 -3.80548 0.644642 9.74389 -2.98126
lowerback 17.1147 -4.90599 -4.65746
upperback 3.47307 -7.04412 3.51727
thorax -4.77163 -3.41253 7.82279
lowerneck -17.1059 -3.74635 -13.1943
upperneck 21.3495 -4.33652 11.2841
head 10.1665 -1.81613 5.65954
rclavicle 4.70126e-014 -3.03644e-014
rhumerus -22.7982 3.70835 -70.4593
rradius 101.245
rwrist -36.3375
rhand -6.17799 22.2268
rfingers 7.12502
rthumb 19.6612 -6.79891
lclavicle 4.70126e-014 -3.03644e-014
lhumerus 19.3158 -6.22536 73.377
lradius 106.636
lwrist 14.3192
lhand 1.23592 7.8651
lfingers 7.12502
lthumb 26.7736 35.9903
rfemur -49.7384 -4.44127 10.9321
rtibia 62.2306
rfoot 8.93251 3.55905
rtoes 0.406229
lfemur -5.07422 5.5426 0.323863
ltibia 60.6849
lfoot -15.5255 -3.62118
ltoes -36.8877
4410
root -1.79107 16.2161 -3.72893 0.425759 9.15501 -2.86628
lowerback 16.8698 -4.99113 -4.58518
upperback 3.37154 -7.1429 3.48074
thorax -4.74801 -3.46194 7.73796
lowerneck -17.42 -3.52247 -13.2081
upperneck 21.4735 -3.89916 10.9465
head 10.2016 -1.64633 5.60312
rclavicle 8.8248e-014 -3.35076e-014
rhumerus -26.5936 2.08718 -70.9005
rradius 99.5529
rwrist -37.0186
rhand -4.44843 21.9504
rfingers 7.12502
rthumb 21.3233 -6.89644
lclavicle 8.8248e-014 -3.35076e-014
lhumerus 16.7937 -4.73735 72.7896
lradius 106.712
lwrist 13.6392
lhand 1.68151 7.54095
lfingers 7.12502
lthumb 27.2 35.6002
rfemur -48.8947 -3.88873 10.708
rtibia 60.3134
rfoot 6.32406 1.46627
rtoes -4.88264
lfemur -3.84742 5.93597 -0.173699
ltibia 59.7865
lfoot -15.2358 -6.20578
ltoes -37.1079
4411
root -1.79888 16.2773 -3.65713 0.167782 8.63907 -2.72382
lowerback 16.62 -5.11898 -4.45091
upperback 3.38782 -7.28586 3.4427
thorax -4.59669 -3.5429 7.61347
lowerneck -17.832 -3.30487 -13.1063
upperneck 21.432 -3.4606 10.5337
head 10.1942 -1.47105 5.49332
rclavicle -2.16613e-014 -3.18552e-014
rhumerus -30.0415 0.181448 -71.0597
rradius 97.7953
rwrist -37.976
rhand -2.94571 21.5113
rfingers 7.12502
rthumb 22.7661 -7.16538
lclavicle -2.16613e-014 -3.18552e-014
lhumerus 14.5075 -3.24408 72.0227
lradius 106.694
lwrist 13.0242
lhand 1.53362 7.64644
lfingers 7.12502
lthumb 27.0585 35.7278
rfemur -48.0324 -3.37931 10.4155
rtibia 58.2605
rfoot 4.40043 -0.410206
rtoes -6.8921
lfemur -2.66753 6.22241 -0.737399
ltibia 58.9702
lfoot -15.05 -8.63254
ltoes -38.0453
4412
root -1.80599 16.3191 -3.59218 0.0289009 7.92622 -2.47471
lowerback 16.3443 -5.20062 -4.44685
upperback 3.38233 -7.39037 3.41195
thorax -4.44346 -3.60331 7.56119
lowerneck -18.2229 -3.03994 -12.8623
upperneck 21.2777 -2.95754 9.97148
head 10.1318 -1.27079 5.30905
rclavicle 1.14053e-014 -1.83379e-014
rhumerus -33.2477 -1.73051 -70.9319
rradius 95.8126
rwrist -39.0745
rhand -1.94681 21.3015
rfingers 7.12502
rthumb 23.7244 -7.25421
lclavicle 1.14053e-014 -1.83379e-014
lhumerus 12.342 -1.6547 71.0965
lradius 106.503
lwrist 12.4619
lhand 0.982294 7.51516
lfingers 7.12502
lthumb 26.5309 35.6773
rfemur -47.3916 -2.67314 9.98106
rtibia 56.1007
rfoot 2.90645 -2.0254
rtoes -5.27521
lfemur -1.55633 6.70743 -1.47853
ltibia 58.1857
lfoot -14.818 -10.5456
ltoes -37.9617
